<?xml version="1.0" encoding="UTF-8" standalone="no"?>
<svg
   xmlns:dc="http://purl.org/dc/elements/1.1/"
   xmlns:cc="http://creativecommons.org/ns#"
   xmlns:rdf="http://www.w3.org/1999/02/22-rdf-syntax-ns#"
   xmlns:svg="http://www.w3.org/2000/svg"
   xmlns="http://www.w3.org/2000/svg"
   viewBox="0 0 2000 666.66669"
   height="666.66669"
   width="2000"
   xml:space="preserve"
   id="svg2"
   version="1.1"><metadata
     id="metadata8"><rdf:RDF><cc:Work
         rdf:about=""><dc:format>image/svg+xml</dc:format><dc:type
           rdf:resource="http://purl.org/dc/dcmitype/StillImage" /></cc:Work></rdf:RDF></metadata><defs
     id="defs6"><clipPath
       id="clipPath18"
       clipPathUnits="userSpaceOnUse"><path
         id="path16"
         d="M 0,500 H 1500 V 0 H 0 Z" /></clipPath><clipPath
       id="clipPath28"
       clipPathUnits="userSpaceOnUse"><path
         id="path26"
         d="M 0,500 H 1500 V 0 H 0 Z" /></clipPath><clipPath
       id="clipPath36"
       clipPathUnits="userSpaceOnUse"><path
         id="path34"
         d="m 136.652,433.06 h 4.811 v -4.811 h -4.811 z" /></clipPath><clipPath
       id="clipPath52"
       clipPathUnits="userSpaceOnUse"><path
         id="path50"
         d="M 0,500 H 1500 V 0 H 0 Z" /></clipPath></defs><g
     transform="matrix(1.3333333,0,0,-1.3333333,0,666.66667)"
     id="g10"><g
       id="g12"><g
         clip-path="url(#clipPath18)"
         id="g14"><path
           id="path20"
           style="fill:#292929;fill-opacity:1;fill-rule:nonzero;stroke:none"
           d="m 1353.727,159.734 h -57.194 v 274.218 h 57.194 z m -235.829,54.061 c 52.495,0 80.7,37.998 80.7,84.616 0,43.483 -28.205,81.482 -80.7,81.482 H 1077.55 V 213.795 Z m 0.393,220.158 c 77.956,0 139.067,-61.112 139.067,-135.542 0,-77.565 -61.111,-138.677 -139.067,-138.677 h -97.936 V 433.953 Z M 841.722,213.795 c 52.493,0 80.699,37.998 80.699,84.616 0,43.483 -28.206,81.482 -80.699,81.482 H 801.373 V 213.795 Z m 0.392,220.158 c 77.956,0 139.068,-61.112 139.068,-135.542 0,-77.565 -61.112,-138.677 -139.068,-138.677 H 744.179 V 433.953 Z M 560.844,209.485 c 46.226,0 82.657,36.433 82.657,87.359 0,50.926 -36.432,87.358 -82.657,87.358 -46.225,0 -82.657,-36.432 -82.657,-87.358 0,-50.926 36.432,-87.359 82.657,-87.359 m 0,228.385 c 76.389,0 142.202,-57.585 142.202,-141.026 0,-83.441 -65.813,-141.027 -142.202,-141.027 -76.389,0 -142.201,57.586 -142.201,141.027 0,83.44 65.812,141.026 142.201,141.026 M 387.303,189.115 c -24.287,-21.937 -56.802,-33.298 -93.234,-33.298 -76.781,0 -142.985,57.586 -142.985,141.027 0,83.44 66.204,141.026 142.985,141.026 36.04,0 68.163,-11.752 91.667,-32.514 l -34.473,-38.782 c -14.494,10.185 -34.081,17.628 -54.06,17.628 -49.359,0 -86.575,-36.432 -86.575,-87.358 0,-50.926 37.216,-87.359 86.575,-87.359 20.762,0 41.133,7.835 56.019,19.587 z" /></g></g><g
       id="g22"><g
         clip-path="url(#clipPath28)"
         id="g24"><g
           id="g30"><g
             id="g32" /><g
             id="g42"><g
               style="opacity:0"
               id="g40"
               clip-path="url(#clipPath36)"><path
                 id="path38"
                 style="fill:#292929;fill-opacity:1;fill-rule:nonzero;stroke:none"
                 d="m 136.652,433.06 h 4.811 v -4.811 h -4.811 z" /></g></g></g></g></g><path
       id="path44"
       style="fill:#292929;fill-opacity:1;fill-rule:nonzero;stroke:none"
       d="m 1122.819,78.948 h 240.528 v -9.621 h -240.528 z" /><g
       id="g46"><g
         clip-path="url(#clipPath52)"
         id="g48"><g
           transform="translate(1075.0234,98.5742)"
           id="g54"><path
             id="path56"
             style="fill:#292929;fill-opacity:1;fill-rule:nonzero;stroke:none"
             d="m 0,0 -2.679,6.139 h 21.208 c 3.684,0 7.051,-0.949 10.102,-2.846 2.939,-1.823 5.265,-4.316 6.976,-7.48 1.712,-3.162 2.568,-6.603 2.568,-10.324 0,-2.791 -0.549,-5.553 -1.647,-8.288 -1.097,-2.734 -2.614,-5.125 -4.549,-7.172 -1.86,-2.008 -3.85,-3.441 -5.971,-4.297 -2.046,-0.818 -4.484,-1.228 -7.311,-1.228 H 3.293 L 3.293,0 Z m 9.265,0 v -29.412 h 9.432 c 2.604,0 4.949,0.67 7.032,2.009 1.972,1.302 3.516,3.05 4.632,5.246 1.117,2.195 1.674,4.595 1.674,7.2 0,2.716 -0.53,5.209 -1.59,7.478 -1.06,2.27 -2.577,4.075 -4.549,5.414 C 23.775,-0.688 21.338,0 18.585,0 Z m -31.31,-28.91 -5.078,10.66 h -4.856 c -1.526,0 -2.865,-0.094 -4.018,-0.279 -1.414,-0.261 -2.698,-0.707 -3.852,-1.34 v -15.627 h -6.083 V 6.139 h 21.878 c 2.568,0 4.837,-0.484 6.809,-1.452 1.972,-0.966 3.497,-2.343 4.576,-4.129 1.153,-1.898 1.731,-4.13 1.731,-6.698 0,-3.125 -0.837,-5.692 -2.512,-7.701 -1.674,-2.01 -4.037,-3.405 -7.088,-4.186 l 3.237,-6.642 c 0.93,-1.376 1.655,-2.344 2.177,-2.901 0.632,-0.707 1.237,-1.182 1.813,-1.424 0.578,-0.241 1.331,-0.362 2.261,-0.362 h 0.613 l 1.34,0.055 v -6.195 c -2.158,0 -3.757,0.075 -4.799,0.224 -1.75,0.297 -3.238,0.874 -4.465,1.73 -1.451,1.041 -2.679,2.586 -3.684,4.632 M -39.849,0.056 v -13.841 c 1.154,0.669 2.438,1.116 3.852,1.339 1.042,0.186 2.381,0.279 4.018,0.279 h 7.925 c 2.196,0 3.907,0.502 5.135,1.507 1.302,1.079 1.953,2.697 1.953,4.855 0,2.047 -0.688,3.573 -2.065,4.576 -1.191,0.857 -2.865,1.285 -5.023,1.285 z m -33.877,-23.329 h 7.703 l -9.097,17.58 -9.209,-19.924 c 0.818,0.707 2.065,1.264 3.739,1.674 1.898,0.447 4.186,0.67 6.864,0.67 m -4.463,25.002 -2.29,5.135 h 6.698 l 20.036,-42.36 h -6.809 l -2.735,6.084 h -12.669 c -2.381,0 -4.521,-0.224 -6.418,-0.67 -1.674,-0.409 -3.069,-0.949 -4.186,-1.618 -1.004,-0.596 -1.674,-1.21 -2.008,-1.842 l -1.061,-1.954 h -6.586 z m -27.515,4.41 h 6.418 l -13.283,-41.635 h -6.585 l -8.037,24.612 -7.814,-24.612 h -6.586 l -14.12,41.635 h 6.251 l 11.051,-31.142 7.813,24.556 -2.121,6.586 h 6.251 l 10.492,-31.142 z m -68.815,-35.049 -5.079,10.66 h -4.855 c -1.526,0 -2.864,-0.094 -4.018,-0.279 -1.414,-0.261 -2.698,-0.707 -3.851,-1.34 v -15.627 h -6.083 V 6.139 h 21.878 c 2.566,0 4.837,-0.484 6.808,-1.452 1.972,-0.966 3.497,-2.343 4.576,-4.129 1.154,-1.898 1.731,-4.13 1.731,-6.698 0,-3.125 -0.837,-5.692 -2.512,-7.701 -1.674,-2.01 -4.037,-3.405 -7.088,-4.186 l 3.238,-6.642 c 0.929,-1.376 1.655,-2.344 2.176,-2.901 0.632,-0.707 1.237,-1.182 1.814,-1.424 0.576,-0.241 1.33,-0.362 2.26,-0.362 h 0.614 l 1.34,0.055 v -6.195 c -2.159,0 -3.758,0.075 -4.8,0.224 -1.749,0.297 -3.237,0.874 -4.465,1.73 -1.451,1.041 -2.679,2.586 -3.684,4.632 m -17.803,28.966 v -13.841 c 1.153,0.669 2.437,1.116 3.851,1.339 1.041,0.186 2.381,0.279 4.018,0.279 h 7.926 c 2.194,0 3.906,0.502 5.133,1.507 1.303,1.079 1.955,2.697 1.955,4.855 0,2.047 -0.689,3.573 -2.066,4.576 -1.19,0.857 -2.865,1.285 -5.022,1.285 z m -15.572,-14.79 c 0,-4.019 -1.041,-7.721 -3.125,-11.107 -2.008,-3.236 -4.734,-5.813 -8.175,-7.729 -3.443,-1.916 -7.154,-2.874 -11.135,-2.874 -4.13,0 -7.925,1.005 -11.385,3.013 -3.386,1.935 -6.047,4.595 -7.981,7.981 -2.009,3.461 -3.014,7.256 -3.014,11.386 0,3.981 1.061,7.645 3.182,10.994 2.008,3.2 4.734,5.739 8.175,7.618 3.442,1.879 7.135,2.818 11.079,2.818 4.055,0 7.813,-0.985 11.274,-2.958 3.386,-1.934 6.064,-4.557 8.036,-7.869 2.047,-3.46 3.069,-7.218 3.069,-11.273 m -6.027,0.335 c 0,2.976 -0.763,5.673 -2.288,8.092 -1.451,2.344 -3.433,4.186 -5.943,5.526 -2.512,1.339 -5.238,2.009 -8.177,2.009 -3.051,0 -5.832,-0.689 -8.344,-2.066 -2.511,-1.376 -4.473,-3.255 -5.888,-5.637 -1.451,-2.492 -2.176,-5.264 -2.176,-8.315 0,-2.902 0.781,-5.581 2.343,-8.037 1.489,-2.307 3.489,-4.139 6,-5.497 2.512,-1.358 5.228,-2.037 8.149,-2.037 2.921,0 5.637,0.707 8.148,2.121 2.511,1.414 4.493,3.311 5.944,5.692 1.488,2.493 2.232,5.209 2.232,8.149 m -68.702,-4.41 v -16.687 h -6.083 V 6.139 h 29.3 V 0 h -23.217 v -12.613 c 1.153,0.67 2.436,1.116 3.851,1.339 1.042,0.186 2.381,0.279 4.018,0.279 h 9.097 v -6.194 h -9.097 c -1.525,0 -2.865,-0.094 -4.018,-0.28 -1.415,-0.26 -2.698,-0.707 -3.851,-1.34 m -47.272,6.642 c 2.493,2.604 4.744,5.507 6.753,8.706 2.01,3.2 3.61,6.4 4.8,9.6 h 6.977 c -1.898,-4.428 -4.205,-8.669 -6.921,-12.725 -2.455,-3.684 -5.32,-7.311 -8.595,-10.883 v -18.027 h -6.027 v 18.027 c -3.275,3.572 -6.139,7.199 -8.595,10.883 -2.716,4.056 -5.023,8.297 -6.92,12.725 h 6.976 c 1.19,-3.2 2.79,-6.4 4.8,-9.6 2.009,-3.199 4.26,-6.102 6.752,-8.706 m -36.778,-16.743 -5.079,10.66 h -4.856 c -1.525,0 -2.865,-0.094 -4.018,-0.279 -1.414,-0.261 -2.698,-0.707 -3.851,-1.34 v -15.627 h -6.084 V 6.139 h 21.878 c 2.568,0 4.837,-0.484 6.809,-1.452 1.972,-0.966 3.498,-2.343 4.577,-4.129 1.153,-1.898 1.73,-4.13 1.73,-6.698 0,-3.125 -0.837,-5.692 -2.512,-7.701 -1.674,-2.01 -4.037,-3.405 -7.088,-4.186 l 3.237,-6.642 c 0.93,-1.376 1.656,-2.344 2.177,-2.901 0.632,-0.707 1.237,-1.182 1.814,-1.424 0.577,-0.241 1.33,-0.362 2.26,-0.362 h 0.614 l 1.339,0.055 v -6.195 c -2.157,0 -3.757,0.075 -4.799,0.224 -1.749,0.297 -3.237,0.874 -4.465,1.73 -1.451,1.041 -2.679,2.586 -3.683,4.632 m -17.804,28.966 v -13.841 c 1.153,0.669 2.437,1.116 3.851,1.339 1.042,0.186 2.381,0.279 4.018,0.279 h 7.925 c 2.196,0 3.907,0.502 5.135,1.507 1.302,1.079 1.953,2.697 1.953,4.855 0,2.047 -0.688,3.573 -2.065,4.576 -1.191,0.857 -2.865,1.285 -5.023,1.285 z M -398.374,0 h -14.678 v -35.496 h -5.916 V 0 h -14.845 v 6.139 h 35.439 z m -39.904,-22.827 c 0,-2.716 -0.819,-5.134 -2.456,-7.255 -1.6,-2.009 -3.804,-3.572 -6.613,-4.689 -2.809,-1.116 -5.981,-1.673 -9.516,-1.673 -3.237,0 -6.381,0.753 -9.432,2.259 -3.051,1.507 -5.618,3.601 -7.702,6.28 l 4.353,4.074 c 3.609,-4.354 7.87,-6.53 12.781,-6.53 2.158,0 4.13,0.26 5.916,0.781 1.972,0.596 3.497,1.433 4.576,2.512 1.228,1.19 1.842,2.604 1.842,4.241 0,1.973 -0.614,3.461 -1.842,4.465 -1.042,0.856 -2.586,1.414 -4.632,1.675 -1.19,0.148 -3.144,0.222 -5.86,0.222 -4.986,0 -8.79,0.912 -11.413,2.736 -2.623,1.823 -3.935,4.501 -3.935,8.036 0,2.232 0.661,4.353 1.982,6.362 1.32,2.01 3.134,3.609 5.441,4.8 2.381,1.265 5.023,1.897 7.925,1.897 3.274,0 6.232,-0.502 8.874,-1.507 2.827,-1.079 5.45,-2.771 7.869,-5.078 l -3.795,-4.465 c -2.27,1.824 -4.335,3.098 -6.195,3.824 -1.86,0.724 -4.111,1.088 -6.753,1.088 -1.526,0 -2.949,-0.317 -4.269,-0.95 -1.321,-0.632 -2.372,-1.478 -3.154,-2.539 -0.781,-1.06 -1.172,-2.185 -1.172,-3.376 0,-3.2 2.958,-4.8 8.874,-4.8 4.725,0 8.464,-0.484 11.218,-1.451 2.604,-0.93 4.465,-2.344 5.581,-4.242 1.004,-1.674 1.507,-3.906 1.507,-6.697 m -62.787,-13.617 c -3.907,0 -7.265,0.678 -10.074,2.037 -2.809,1.357 -4.948,3.32 -6.418,5.887 -1.469,2.568 -2.204,5.637 -2.204,9.209 v 25.45 h 6.027 v -25.45 c 0,-3.572 1.098,-6.306 3.293,-8.204 2.195,-1.897 5.321,-2.846 9.376,-2.846 4.056,0 7.181,0.949 9.377,2.846 2.195,1.898 3.292,4.632 3.292,8.204 v 25.45 h 6.028 v -25.45 c 0,-3.572 -0.735,-6.641 -2.205,-9.209 -1.469,-2.567 -3.609,-4.53 -6.418,-5.887 -2.809,-1.359 -6.167,-2.037 -10.074,-2.037 m -65.8,36.444 -2.679,6.139 h 21.208 c 3.683,0 7.05,-0.949 10.102,-2.846 2.939,-1.823 5.264,-4.316 6.976,-7.48 1.711,-3.162 2.567,-6.603 2.567,-10.324 0,-2.791 -0.549,-5.553 -1.646,-8.288 -1.098,-2.734 -2.614,-5.125 -4.549,-7.172 -1.86,-2.008 -3.851,-3.441 -5.971,-4.297 -2.047,-0.818 -4.484,-1.228 -7.311,-1.228 h -15.404 V 0 Z m 9.264,0 v -29.412 h 9.433 c 2.604,0 4.948,0.67 7.031,2.009 1.972,1.302 3.516,3.05 4.633,5.246 1.116,2.195 1.674,4.595 1.674,7.2 0,2.716 -0.53,5.209 -1.59,7.478 -1.061,2.27 -2.577,4.075 -4.549,5.414 C -543.09,-0.688 -545.527,0 -548.28,0 Z m -56.48,0.278 -4.855,5.861 h 7.869 l 26.734,-31.812 V 6.139 h 6.138 v -41.635 h -6.027 l -23.887,28.631 v -28.631 h -5.972 z m -13.506,-35.774 h -5.972 V 6.139 h 5.972 z m -32.37,36.277 -3.906,-4.577 c -1.526,1.564 -3.349,2.791 -5.47,3.684 -2.121,0.893 -4.353,1.34 -6.697,1.34 -3.051,0 -5.832,-0.689 -8.344,-2.066 -2.511,-1.376 -4.474,-3.255 -5.888,-5.637 -1.451,-2.492 -2.176,-5.264 -2.176,-8.315 0,-2.902 0.781,-5.581 2.344,-8.037 1.488,-2.307 3.488,-4.139 5.999,-5.497 2.512,-1.358 5.219,-2.037 8.121,-2.037 2.046,0 4.009,0.353 5.888,1.06 1.878,0.707 3.562,1.694 5.05,2.958 v 7.59 h -5.357 l -2.623,6.028 h 14.008 V -28.91 c -2.121,-2.381 -4.66,-4.233 -7.618,-5.553 -2.958,-1.321 -6.093,-1.981 -9.404,-1.981 -4.13,0 -7.925,1.005 -11.386,3.013 -3.385,1.935 -6.045,4.595 -7.98,7.981 -2.009,3.461 -3.014,7.256 -3.014,11.386 0,3.981 1.06,7.645 3.181,10.994 2.009,3.2 4.735,5.739 8.176,7.618 3.442,1.879 7.135,2.818 11.079,2.818 3.088,0 6.027,-0.595 8.818,-1.785 2.716,-1.116 5.115,-2.717 7.199,-4.8 m -83.827,-0.503 -4.855,5.861 h 7.869 l 26.733,-31.812 V 6.139 h 6.139 v -41.635 h -6.027 l -23.887,28.631 v -28.631 h -5.972 z m -13.506,-35.774 h -5.972 V 6.139 h 5.972 z m -13.785,41.635 -17.469,-41.635 h -7.199 l -17.19,41.635 h 6.586 l 14.231,-34.826 14.344,34.826 z m -49.671,-41.635 h -5.972 V 6.139 h 5.972 z m -28.966,6.586 -5.079,10.66 h -4.855 c -1.525,0 -2.865,-0.094 -4.019,-0.279 -1.413,-0.261 -2.697,-0.707 -3.85,-1.34 v -15.627 h -6.084 V 6.139 h 21.878 c 2.567,0 4.837,-0.484 6.809,-1.452 1.972,-0.966 3.497,-2.343 4.577,-4.129 1.153,-1.898 1.73,-4.13 1.73,-6.698 0,-3.125 -0.838,-5.692 -2.512,-7.701 -1.675,-2.01 -4.037,-3.405 -7.088,-4.186 l 3.237,-6.642 c 0.93,-1.376 1.656,-2.344 2.176,-2.901 0.633,-0.707 1.238,-1.182 1.814,-1.424 0.577,-0.241 1.331,-0.362 2.261,-0.362 h 0.613 l 1.34,0.055 v -6.195 c -2.158,0 -3.757,0.075 -4.799,0.224 -1.749,0.297 -3.237,0.874 -4.465,1.73 -1.451,1.041 -2.679,2.586 -3.684,4.632 m -17.803,28.966 v -13.841 c 1.153,0.669 2.437,1.116 3.85,1.339 1.042,0.186 2.382,0.279 4.019,0.279 h 7.925 c 2.195,0 3.907,0.502 5.135,1.507 1.302,1.079 1.953,2.697 1.953,4.855 0,2.047 -0.688,3.573 -2.065,4.576 -1.191,0.857 -2.865,1.285 -5.023,1.285 z M -921.261,0 l -2.678,6.139 h 21.208 c 3.683,0 7.05,-0.949 10.101,-2.846 2.94,-1.823 5.265,-4.316 6.976,-7.48 1.712,-3.162 2.568,-6.603 2.568,-10.324 0,-2.791 -0.549,-5.553 -1.647,-8.288 -1.098,-2.734 -2.614,-5.125 -4.548,-7.172 -1.861,-2.008 -3.851,-3.441 -5.972,-4.297 -2.046,-0.818 -4.483,-1.228 -7.311,-1.228 h -15.404 V 0 Z m 9.265,0 v -29.412 h 9.432 c 2.604,0 4.948,0.67 7.032,2.009 1.972,1.302 3.516,3.05 4.632,5.246 1.116,2.195 1.674,4.595 1.674,7.2 0,2.716 -0.53,5.209 -1.59,7.478 -1.06,2.27 -2.577,4.075 -4.549,5.414 -2.12,1.377 -4.557,2.065 -7.311,2.065 z" /></g></g></g></g></svg>